<svg width="132" height="28" viewBox="0 0 132 28" fill="none" xmlns="http://www.w3.org/2000/svg">
<path d="M24.8522 3.54113C27.5556 4.00523 30.9551 5.73398 34.1457 8.25169C35.6888 9.46994 35.7817 9.51635 36.7563 9.51635C37.464 9.51635 37.7541 9.58596 38.4386 9.87602C39.8657 10.5025 40.7707 10.4677 42.4994 9.70199L42.9519 9.50474L42.6735 9.99204C42.3486 10.5722 41.7337 11.0827 41.0607 11.3147C40.6663 11.4539 38.9839 11.7208 38.4386 11.7208C38.3342 11.7208 38.2878 11.918 38.2878 12.3357C38.2878 13.2639 38.4734 13.3799 39.6801 13.2755L40.6314 13.1943L40.4574 13.5424C40.2486 13.9368 39.5756 14.4241 38.9491 14.6214C38.7171 14.691 38.4734 14.8418 38.4154 14.9463C38.3458 15.0739 38.3806 15.8396 38.485 16.9535C38.5894 17.9513 38.6358 18.8911 38.601 19.0419C38.4038 19.7844 36.9071 20.1789 35.9325 19.7496C35.6308 19.622 34.9927 19.4016 34.5054 19.2623C34.0065 19.1347 33.0435 18.7634 32.359 18.4386L31.1175 17.8584L30.3634 18.2297L29.5976 18.6126L29.9225 19.0187C30.3286 19.5408 30.5142 19.8889 30.5142 20.1325C30.5142 20.4806 29.3075 22.5226 28.7854 23.0563C28.1125 23.7292 27.1147 24.2049 25.9661 24.3906C24.9799 24.5414 24.481 24.4254 24.481 24.0541C24.4926 23.4972 25.6412 21.5828 25.9661 21.5828C26.0821 21.5828 26.3025 21.7104 26.4534 21.8729C26.6042 22.0353 26.813 22.1629 26.9291 22.1629C27.2075 22.1629 27.8341 21.374 27.9153 20.9099C27.9849 20.585 27.9385 20.4574 27.6832 20.2137C27.3816 19.9121 27.3352 19.9005 25.6412 19.8657C23.5876 19.8192 23.8196 19.68 22.7058 21.5828C22.0097 22.7662 21.9865 22.8243 21.9981 23.6132C21.9981 24.2513 22.0677 24.5762 22.3229 25.1215C22.497 25.5044 22.787 26.2005 22.9727 26.653L23.2975 27.5H21.5804H19.8632L19.6196 26.479C19.492 25.9221 19.3179 25.1795 19.2483 24.8315C19.0511 23.9497 18.9583 4.99143 19.1439 4.64336C19.2831 4.3765 19.8516 4.06324 20.745 3.78478C22.0561 3.34389 23.3439 3.27428 24.8522 3.54113ZM16.8234 17.0579V27.5H15.1991H13.5748V18.5314C13.5864 11.7208 13.6212 9.51635 13.7256 9.33071C13.83 9.14507 16.6494 6.66217 16.8002 6.62736C16.8118 6.61576 16.8234 11.3147 16.8234 17.0579ZM10.0941 19.7844V27.5H8.41171H6.72937V21.0143C6.72937 17.4408 6.76417 14.4357 6.81058 14.3313C6.8686 14.1689 9.87361 12.0689 10.0476 12.0689C10.0708 12.0689 10.0941 15.538 10.0941 19.7844ZM3.24866 21.8148V27.5H1.62433H0V22.5806C0 18.3573 0.0232047 17.6496 0.174035 17.522C0.266854 17.4408 0.881779 17.1623 1.53151 16.8954C2.19284 16.6286 2.83097 16.3501 2.9586 16.2689C3.08623 16.1993 3.20225 16.1297 3.22545 16.1297C3.23706 16.1297 3.24866 18.6822 3.24866 21.8148Z" fill="white"/>
<path d="M19.0321 0.298889C19.0348 0.482816 19.0063 0.966155 18.9769 1.39202C18.9162 2.10579 18.8931 2.15213 18.6776 2.05184C18.5577 1.98463 18.3552 1.96463 18.237 2.01237C18.1187 2.04862 17.5328 2.6322 16.9364 3.30792C13.7786 6.8616 9.62164 10.3841 5.95673 12.6115C4.90809 13.2594 2.95039 14.3463 3.06756 14.2296C3.10271 14.1945 3.99733 13.5834 5.06873 12.8661C7.4941 11.2435 9.76222 9.43917 11.5793 7.68755C13.162 6.16936 17.2673 1.56683 17.2637 1.32542C17.2624 1.23346 17.1528 1.06261 17.0202 0.938098C16.8393 0.768308 16.8143 0.68819 16.9208 0.652118C17.6421 0.376977 18.7542 0.00406314 18.885 0.00212543C18.968 -0.0106031 19.0295 0.126457 19.0321 0.298889Z" fill="#38B149"/>
<path d="M44.8233 27.3086V5.79149H53.4385C55.0215 5.79149 56.3418 6.02614 57.3994 6.49542C58.4571 6.96471 59.252 7.61611 59.7844 8.44961C60.3167 9.27612 60.5829 10.2287 60.5829 11.3074C60.5829 12.1479 60.4148 12.8868 60.0786 13.5242C59.7423 14.1546 59.2801 14.6729 58.6917 15.0791C58.1104 15.4784 57.4449 15.7621 56.6955 15.9302V16.1403C57.515 16.1753 58.282 16.4065 58.9964 16.8337C59.7178 17.261 60.3027 17.8598 60.751 18.6303C61.1992 19.3938 61.4234 20.3043 61.4234 21.362C61.4234 22.5037 61.1397 23.5228 60.5724 24.4193C60.012 25.3089 59.182 26.0128 58.0823 26.5311C56.9827 27.0494 55.6273 27.3086 54.0164 27.3086H44.8233ZM49.3725 23.5893H53.0813C54.3491 23.5893 55.2736 23.3477 55.855 22.8644C56.4363 22.3741 56.727 21.7227 56.727 20.9102C56.727 20.3148 56.5834 19.7895 56.2962 19.3342C56.0091 18.879 55.5993 18.5217 55.067 18.2626C54.5417 18.0034 53.9148 17.8739 53.1864 17.8739H49.3725V23.5893ZM49.3725 14.7955H52.7451C53.3685 14.7955 53.9218 14.6869 54.4051 14.4698C54.8954 14.2456 55.2806 13.9305 55.5608 13.5242C55.848 13.118 55.9916 12.6312 55.9916 12.0638C55.9916 11.2863 55.7149 10.6595 55.1616 10.1832C54.6152 9.70688 53.8378 9.46873 52.8291 9.46873H49.3725V14.7955ZM74.6483 20.4374V11.1708H79.124V27.3086H74.8269V24.3773H74.6588C74.2946 25.3229 73.6887 26.0828 72.8412 26.6572C72.0007 27.2315 70.9746 27.5187 69.7628 27.5187C68.6842 27.5187 67.7351 27.2736 66.9156 26.7833C66.0961 26.293 65.4552 25.5961 64.9929 24.6925C64.5376 23.789 64.3065 22.7068 64.2995 21.446V11.1708H68.7752V20.6475C68.7822 21.6001 69.0379 22.3531 69.5422 22.9064C70.0465 23.4598 70.7224 23.7364 71.5699 23.7364C72.1092 23.7364 72.6136 23.6138 73.0828 23.3687C73.5521 23.1165 73.9304 22.7453 74.2175 22.255C74.5117 21.7647 74.6553 21.1588 74.6483 20.4374ZM87.1798 5.79149V27.3086H82.7041V5.79149H87.1798ZM95.2408 5.79149V27.3086H90.7651V5.79149H95.2408ZM106.181 27.6238C104.521 27.6238 103.092 27.2876 101.894 26.6152C100.703 25.9358 99.7857 24.9762 99.1413 23.7364C98.4969 22.4897 98.1747 21.0153 98.1747 19.3132C98.1747 17.6532 98.4969 16.1963 99.1413 14.9426C99.7857 13.6888 100.693 12.7117 101.862 12.0113C103.039 11.3109 104.419 10.9606 106.002 10.9606C107.067 10.9606 108.058 11.1322 108.975 11.4755C109.9 11.8117 110.705 12.3195 111.392 12.9989C112.085 13.6783 112.625 14.5328 113.01 15.5624C113.395 16.5851 113.588 17.7828 113.588 19.1556V20.3849H99.9608V17.6112H109.375C109.375 16.9668 109.234 16.396 108.954 15.8986C108.674 15.4013 108.285 15.0126 107.788 14.7324C107.298 14.4453 106.727 14.3017 106.076 14.3017C105.396 14.3017 104.794 14.4593 104.268 14.7745C103.75 15.0827 103.344 15.4994 103.05 16.0247C102.756 16.543 102.605 17.1209 102.598 17.7583V20.3954C102.598 21.1939 102.745 21.8838 103.039 22.4651C103.34 23.0465 103.764 23.4948 104.31 23.81C104.857 24.1252 105.505 24.2828 106.254 24.2828C106.751 24.2828 107.207 24.2127 107.62 24.0726C108.033 23.9325 108.387 23.7224 108.681 23.4422C108.975 23.1621 109.199 22.8189 109.354 22.4126L113.493 22.6858C113.283 23.6804 112.852 24.5489 112.201 25.2914C111.556 26.0268 110.723 26.6012 109.7 27.0144C108.685 27.4207 107.511 27.6238 106.181 27.6238ZM119.96 11.1708L122.923 16.8127L125.959 11.1708H130.55L125.875 19.2397L130.676 27.3086H126.106L122.923 21.7297L119.792 27.3086H115.169L119.96 19.2397L115.337 11.1708H119.96Z" fill="white"/>
</svg>
